<svg xmlns="http://www.w3.org/2000/svg" viewBox="0 0 400 300" style="width:100%;height:100%;background:#fdf0c8">
    <!-- warm golden background -->
    <rect width="400" height="300" fill="#fdf0c8"/>
    <!-- ceiling beams -->
    <rect x="0" y="0" width="400" height="28" fill="#c8a060"/>
    <rect x="0" y="5" width="400" height="6" fill="#b89050" stroke="#8a6830" stroke-width="0.5"/>
    <rect x="60" y="0" width="14" height="28" fill="#a07840" stroke="#8a6830" stroke-width="0.5"/>
    <rect x="160" y="0" width="14" height="28" fill="#a07840" stroke="#8a6830" stroke-width="0.5"/>
    <rect x="260" y="0" width="14" height="28" fill="#a07840" stroke="#8a6830" stroke-width="0.5"/>
    <rect x="350" y="0" width="14" height="28" fill="#a07840" stroke="#8a6830" stroke-width="0.5"/>
    <!-- hanging bundles from beam -->
    <line x1="90" y1="5" x2="90" y2="40" stroke="#8a6830" stroke-width="1"/>
    <ellipse cx="90" cy="45" rx="6" ry="9" fill="#c89848" stroke="#8a6830" stroke-width="0.8"/>
    <line x1="115" y1="5" x2="115" y2="50" stroke="#8a6830" stroke-width="1"/>
    <ellipse cx="115" cy="55" rx="5" ry="8" fill="#d4a850" stroke="#8a6830" stroke-width="0.8"/>
    <line x1="135" y1="5" x2="135" y2="38" stroke="#8a6830" stroke-width="1"/>
    <!-- herb bundle -->
    <path d="M128,38 Q135,30 142,38" fill="#a0b870" stroke="#8a6830" stroke-width="0.8"/>
    <ellipse cx="135" cy="40" rx="7" ry="4" fill="#90a860" stroke="#8a6830" stroke-width="0.7"/>
    <line x1="200" y1="5" x2="200" y2="42" stroke="#8a6830" stroke-width="1"/>
    <ellipse cx="200" cy="48" rx="6" ry="9" fill="#c89848" stroke="#8a6830" stroke-width="0.8"/>
    <!-- wall -->
    <rect x="0" y="28" width="400" height="272" fill="#f0d898"/>
    <!-- LEFT WINDOW -->
    <rect x="18" y="55" width="55" height="65" rx="12" fill="#d0e8f0" stroke="#8a6830" stroke-width="2"/>
    <rect x="18" y="55" width="55" height="65" rx="12" fill="none" stroke="#c8a860" stroke-width="3"/>
    <!-- window curtains -->
    <path d="M18,55 Q28,80 22,120" fill="#e09068" stroke="#8a6830" stroke-width="1"/>
    <path d="M73,55 Q63,80 68,120" fill="#e09068" stroke="#8a6830" stroke-width="1"/>
    <!-- window cross -->
    <line x1="45" y1="55" x2="45" y2="120" stroke="#8a6830" stroke-width="1"/>
    <line x1="18" y1="88" x2="73" y2="88" stroke="#8a6830" stroke-width="1"/>
    <!-- SMALL WINDOW right -->
    <rect x="340" y="50" width="42" height="40" rx="4" fill="#d0e8f0" stroke="#8a6830" stroke-width="1.5"/>
    <line x1="361" y1="50" x2="361" y2="90" stroke="#8a6830" stroke-width="1"/>
    <line x1="340" y1="70" x2="382" y2="70" stroke="#8a6830" stroke-width="1"/>
    <!-- BREAD OVEN / FIREPLACE — centre -->
    <rect x="195" y="80" width="130" height="155" rx="5" fill="#c8a870" stroke="#8a6830" stroke-width="1.5"/>
    <!-- stone blocks on oven -->
    <rect x="195" y="80" width="130" height="155" rx="5" fill="none" stroke="#b89050" stroke-width="0.5"/>
    <!-- stone texture grid -->
    <line x1="215" y1="80" x2="215" y2="235" stroke="#b89050" stroke-width="0.5"/>
    <line x1="235" y1="80" x2="235" y2="235" stroke="#b89050" stroke-width="0.5"/>
    <line x1="255" y1="80" x2="255" y2="235" stroke="#b89050" stroke-width="0.5"/>
    <line x1="275" y1="80" x2="275" y2="235" stroke="#b89050" stroke-width="0.5"/>
    <line x1="295" y1="80" x2="295" y2="235" stroke="#b89050" stroke-width="0.5"/>
    <line x1="315" y1="80" x2="315" y2="235" stroke="#b89050" stroke-width="0.5"/>
    <line x1="195" y1="100" x2="325" y2="100" stroke="#b89050" stroke-width="0.5"/>
    <line x1="195" y1="120" x2="325" y2="120" stroke="#b89050" stroke-width="0.5"/>
    <line x1="195" y1="140" x2="325" y2="140" stroke="#b89050" stroke-width="0.5"/>
    <line x1="195" y1="160" x2="325" y2="160" stroke="#b89050" stroke-width="0.5"/>
    <line x1="195" y1="180" x2="325" y2="180" stroke="#b89050" stroke-width="0.5"/>
    <line x1="195" y1="200" x2="325" y2="200" stroke="#b89050" stroke-width="0.5"/>
    <line x1="195" y1="220" x2="325" y2="220" stroke="#b89050" stroke-width="0.5"/>
    <!-- oven arch mouth -->
    <path d="M225,235 Q225,175 260,170 Q295,175 295,235" fill="#3a2510" stroke="#8a6830" stroke-width="1.5"/>
    <!-- fire glow -->
    <ellipse cx="260" cy="230" rx="28" ry="12" fill="#f0a020" opacity="0.8"/>
    <ellipse cx="260" cy="218" rx="18" ry="16" fill="#f8c030" opacity="0.7"/>
    <path d="M248,215 Q255,195 260,210 Q265,195 272,215" fill="#ffd040" opacity="0.9"/>
    <!-- BREAD SHELF right side -->
    <rect x="345" y="75" width="55" height="155" rx="3" fill="#c4a060" stroke="#8a6830" stroke-width="1.5"/>
    <rect x="345" y="110" width="55" height="5" fill="#a07840" stroke="#8a6830" stroke-width="0.8"/>
    <rect x="345" y="150" width="55" height="5" fill="#a07840" stroke="#8a6830" stroke-width="0.8"/>
    <rect x="345" y="190" width="55" height="5" fill="#a07840" stroke="#8a6830" stroke-width="0.8"/>
    <!-- bread loaves on shelves -->
    <ellipse cx="360" cy="105" rx="10" ry="8" fill="#c8905a" stroke="#8a6830" stroke-width="0.8"/>
    <ellipse cx="378" cy="103" rx="10" ry="8" fill="#c8905a" stroke="#8a6830" stroke-width="0.8"/>
    <ellipse cx="362" cy="145" rx="11" ry="8" fill="#d4a060" stroke="#8a6830" stroke-width="0.8"/>
    <ellipse cx="380" cy="143" rx="10" ry="8" fill="#c8905a" stroke="#8a6830" stroke-width="0.8"/>
    <ellipse cx="360" cy="185" rx="10" ry="7" fill="#c8905a" stroke="#8a6830" stroke-width="0.8"/>
    <ellipse cx="378" cy="183" rx="9" ry="7" fill="#d4a060" stroke="#8a6830" stroke-width="0.8"/>
    <!-- COUNTER left -->
    <rect x="0" y="170" width="185" height="20" rx="2" fill="#c4a060" stroke="#8a6830" stroke-width="1.5"/>
    <rect x="0" y="190" width="185" height="80" rx="2" fill="#d4b070" stroke="#8a6830" stroke-width="1.5"/>
    <!-- counter top items: lavender pot -->
    <rect x="12" y="145" width="20" height="28" rx="3" fill="#c8a060" stroke="#8a6830" stroke-width="1"/>
    <path d="M12,148 Q22,135 32,148" fill="#c0a8d8" stroke="#8a6830" stroke-width="0.8"/>
    <path d="M16,145 Q22,130 28,145" fill="#b898cc" stroke="#8a6830" stroke-width="0.7"/>
    <!-- clay jars on counter -->
    <ellipse cx="65" cy="170" rx="10" ry="8" fill="#c89860" stroke="#8a6830" stroke-width="1"/>
    <rect x="55" y="152" width="20" height="20" rx="4" fill="#c89860" stroke="#8a6830" stroke-width="1"/>
    <ellipse cx="65" cy="152" rx="10" ry="5" fill="#d4a870" stroke="#8a6830" stroke-width="0.8"/>
    <ellipse cx="95" cy="168" rx="9" ry="7" fill="#b88850" stroke="#8a6830" stroke-width="1"/>
    <rect x="86" y="152" width="18" height="18" rx="4" fill="#b88850" stroke="#8a6830" stroke-width="1"/>
    <ellipse cx="95" cy="152" rx="9" ry="4" fill="#c89860" stroke="#8a6830" stroke-width="0.8"/>
    <!-- BAKER (round, cheerful) behind counter -->
    <!-- body -->
    <ellipse cx="148" cy="195" rx="25" ry="22" fill="#d4a870" stroke="#8a6830" stroke-width="1.5"/>
    <!-- shirt -->
    <ellipse cx="148" cy="210" rx="25" ry="15" fill="#c8956a" stroke="#8a6830" stroke-width="1"/>
    <!-- collar -->
    <path d="M135,190 Q148,195 161,190" fill="#90c0a0" stroke="#8a6830" stroke-width="1"/>
    <!-- head -->
    <circle cx="148" cy="168" r="20" fill="#e0b880" stroke="#8a6830" stroke-width="1.5"/>
    <!-- face: smile -->
    <path d="M140,172 Q148,180 156,172" fill="none" stroke="#8a6830" stroke-width="1.2"/>
    <!-- eyes -->
    <ellipse cx="142" cy="165" rx="3" ry="3.5" fill="#5a3a20"/>
    <ellipse cx="154" cy="165" rx="3" ry="3.5" fill="#5a3a20"/>
    <!-- cheeks -->
    <ellipse cx="138" cy="172" rx="5" ry="3" fill="#e09070" opacity="0.5"/>
    <ellipse cx="158" cy="172" rx="5" ry="3" fill="#e09070" opacity="0.5"/>
    <!-- CENTRE TABLE -->
    <rect x="100" y="248" width="120" height="8" rx="2" fill="#c4a060" stroke="#8a6830" stroke-width="1.2"/>
    <rect x="108" y="256" width="5" height="30" fill="#b08848" stroke="#8a6830" stroke-width="0.8"/>
    <rect x="207" y="256" width="5" height="30" fill="#b08848" stroke="#8a6830" stroke-width="0.8"/>
    <!-- bowl on table -->
    <ellipse cx="150" cy="248" rx="22" ry="10" fill="#c8a060" stroke="#8a6830" stroke-width="1"/>
    <ellipse cx="150" cy="244" rx="20" ry="8" fill="#d4b070" stroke="#8a6830" stroke-width="0.8"/>
    <!-- fruits in bowl -->
    <circle cx="142" cy="241" r="6" fill="#e07050" stroke="#8a6830" stroke-width="0.7"/>
    <circle cx="154" cy="239" r="6" fill="#e08050" stroke="#8a6830" stroke-width="0.7"/>
    <circle cx="163" cy="242" r="5" fill="#d06040" stroke="#8a6830" stroke-width="0.7"/>
    <!-- bottle on table -->
    <rect x="182" y="228" width="12" height="22" rx="3" fill="#d0b870" stroke="#8a6830" stroke-width="1"/>
    <rect x="185" y="222" width="6" height="10" rx="2" fill="#c8a858" stroke="#8a6830" stroke-width="0.8"/>
    <!-- small bowl -->
    <ellipse cx="118" cy="248" rx="10" ry="5" fill="#c09050" stroke="#8a6830" stroke-width="0.8"/>
    <ellipse cx="118" cy="245" rx="9" ry="4" fill="#d0a060" stroke="#8a6830" stroke-width="0.7"/>
    <!-- FLOOR tiles -->
    <rect x="0" y="265" width="400" height="35" fill="#e8d090"/>
    <line x1="0" y1="275" x2="400" y2="275" stroke="#c8a850" stroke-width="0.6"/>
    <line x1="0" y1="285" x2="400" y2="285" stroke="#c8a850" stroke-width="0.6"/>
    <line x1="50" y1="265" x2="50" y2="300" stroke="#c8a850" stroke-width="0.6"/>
    <line x1="100" y1="265" x2="100" y2="300" stroke="#c8a850" stroke-width="0.6"/>
    <line x1="150" y1="265" x2="150" y2="300" stroke="#c8a850" stroke-width="0.6"/>
    <line x1="200" y1="265" x2="200" y2="300" stroke="#c8a850" stroke-width="0.6"/>
    <line x1="250" y1="265" x2="250" y2="300" stroke="#c8a850" stroke-width="0.6"/>
    <line x1="300" y1="265" x2="300" y2="300" stroke="#c8a850" stroke-width="0.6"/>
    <line x1="350" y1="265" x2="350" y2="300" stroke="#c8a850" stroke-width="0.6"/>
    <!-- sketch border -->
    <rect x="0" y="0" width="400" height="300" fill="none" stroke="#8a6830" stroke-width="1.5" rx="6"/>
  </svg>